<?xml version="1.0" encoding="UTF-8" standalone="no"?>
<svg
   xmlns:dc="http://purl.org/dc/elements/1.1/"
   xmlns:cc="http://creativecommons.org/ns#"
   xmlns:rdf="http://www.w3.org/1999/02/22-rdf-syntax-ns#"
   xmlns:svg="http://www.w3.org/2000/svg"
   xmlns="http://www.w3.org/2000/svg"
   viewBox="0 0 326.66666 328"
   height="328"
   width="326.66666"
   xml:space="preserve"
   id="svg2"
   version="1.1"><metadata
     id="metadata8"><rdf:RDF><cc:Work
         rdf:about=""><dc:format>image/svg+xml</dc:format><dc:type
           rdf:resource="http://purl.org/dc/dcmitype/StillImage" /></cc:Work></rdf:RDF></metadata><defs
     id="defs6" /><g
     transform="matrix(1.3333333,0,0,-1.3333333,0,328)"
     id="g10"><g
       transform="scale(0.1)"
       id="g12"><path
         id="path14"
         style="fill:#234773;fill-opacity:1;fill-rule:evenodd;stroke:none"
         d="m 1635.55,81.25 c 15.35,7.6602 31.56,15.3516 48.51,23.051 17.31,7.687 31.76,16.48 43.28,26.437 -5.74,-4.449 -12.96,-8.828 -21.64,-13.008 -8.63,-4.449 -17.46,-8.781 -26.44,-12.929 -8.99,-4.18 -17.46,-8.3518 -25.47,-12.5315 -7.7,-3.8281 -13.79,-7.539 -18.24,-11.0195 M 636.02,2270.12 c 1.64,3.83 5.308,7.85 11.089,11.99 5.743,4.49 9.77,8.51 12.032,12.03 -6.09,-3.2 -10.469,-6.25 -13.012,-9.14 -2.258,-2.89 -6.719,-5.94 -13.43,-9.1 2.531,-0.67 2.692,-2.27 0.461,-4.81 -2.57,-2.61 -1.601,-2.89 2.86,-0.97 m 97.14,48.55 18.719,7.7 c 12.851,5.11 25.82,10.39 38.98,15.86 13.75,4.8 28.051,9.96 42.77,15.39 -9.918,0.62 -22.578,-2.58 -37.969,-9.61 -7.379,-3.24 -14.449,-6.29 -21.172,-9.18 -7.027,-3.21 -13.117,-5.24 -18.277,-6.21 -3.481,-1.92 -6.563,-4.03 -9.141,-6.25 -2.89,-1.96 -6.211,-4.03 -10.082,-6.29 -1.289,0.66 -6.597,-0.63 -15.859,-3.83 -8.981,-3.2 -18.238,-7.19 -27.848,-11.99 -9.332,-4.53 -15.429,-8.52 -18.32,-12.03 13.48,6.36 26.598,12.3 39.449,17.77 6.102,2.89 12.309,5.78 18.75,8.67 m 1550.9,-769.69 c -0.62,3.52 -2.22,8.83 -4.8,15.82 -2.54,6.76 -5.78,13.64 -9.61,20.71 -3.87,7.07 -7.85,12.65 -12.03,16.83 -4.14,4.18 -7.7,5.12 -10.59,2.89 3.56,-5.15 6.72,-11.36 9.61,-18.78 2.89,-7.66 5.47,-15.71 7.74,-24.03 1.91,-8.01 3.98,-15.35 6.21,-22.11 2.26,-6.76 4.49,-11.72 6.75,-14.88 4.81,-5.16 7.5,-4.34 8.17,2.38 0.62,6.72 0.15,13.79 -1.45,21.17 m -3.86,-180.78 c 0.35,-9.29 -0.28,-17.3 -1.92,-24.02 -1.56,0.98 -2.69,3.36 -3.32,7.19 -0.98,4.18 -2.26,6.72 -3.87,7.69 1.25,-6.09 1.45,-10.08 0.47,-11.99 -1.6,4.14 -2.54,3.98 -2.89,-0.51 4.18,-7.34 8.36,-8.32 12.5,-2.89 4.18,5.43 3.83,13.63 -0.97,24.53 M 2095.12,624.488 c -49.03,-74.367 -106.41,-141.367 -172.11,-200.968 16.99,4.492 34.14,9.289 51.48,14.41 9.26,2.89 18.71,6.09 28.36,9.609 9.88,3.551 19.69,7.691 29.3,12.539 8.67,9.262 14.73,16.172 18.28,20.621 3.16,4.531 6.21,9.34 9.1,14.461 2.58,4.801 7.7,12.5 15.43,23.078 2.89,7.071 4.65,13.602 5.27,19.731 0.67,6.371 1.1,12.812 1.45,19.222 0,12.188 4.45,25.11 13.44,38.899 -1.92,8.359 -1.92,17.82 0,28.398 M 339.922,1804.26 c 2.848,2.54 5.738,4.8 8.629,6.72 1.918,3.2 4.027,6.25 6.219,9.14 0,3.2 -0.629,5.43 -1.918,6.72 -1.25,1.6 -3.832,0.97 -7.692,-1.92 -6.058,-9.92 -7.859,-16.83 -5.238,-20.66 m 15.816,27.38 c 2.274,-0.94 4.813,-0.78 7.742,0.47 9.25,12.19 18.711,24.37 28.321,36.56 -1.25,3.83 -0.981,8.48 0.969,13.95 7.39,4.14 10.902,4.14 10.589,0 52.582,63.12 111.84,119.37 177.852,168.75 -5.082,-2.27 -10.231,-4.34 -15.352,-6.25 -8.98,-3.87 -17.66,-8.17 -25.98,-13.01 -8.32,-4.81 -15.5,-10.86 -21.641,-18.24 2.582,2.22 5,4.18 7.231,5.74 2.23,1.64 3.511,1.48 3.871,-0.47 -11.879,-8.32 -23.129,-16.48 -33.68,-24.49 -10.582,-8.05 -20.351,-17.81 -29.332,-29.34 -9.258,-6.4 -19.726,-15.23 -31.25,-26.44 -11.879,-10.9 -23.238,-23.09 -34.137,-36.53 -11.171,-13.47 -20.82,-26.44 -28.832,-38.98 -7.699,-12.77 -13.16,-23.4 -16.371,-31.72 m 475,358.63 c 66.992,25.98 136.84,45.04 209.612,57.23 6.41,2.89 13.48,4.8 21.13,5.78 16.68,2.54 31.45,4.18 44.26,4.81 6.72,0.35 13.13,0.35 19.22,0 29.18,2.53 58.67,3.82 88.44,3.82 52.62,0 104.22,-3.82 154.84,-11.52 -73.08,22.73 -150.51,31.72 -232.22,26.91 -83.01,-5.42 -166.02,-20.66 -249.032,-45.66 -14.097,-9.61 -28.707,-19.88 -43.75,-30.74 -4.797,-3.87 -8.976,-7.38 -12.5,-10.63 m 741.802,90.86 c 42.3,-17.89 82.03,-36.33 119.22,-55.27 37.19,-18.59 72.77,-37.81 106.76,-57.7 67.61,-38.75 132.5,-82.5 194.68,-131.21 2.58,-0.97 4.69,-0.97 6.25,0 1.6,0.98 4.34,-0.15 8.21,-3.4 11.83,-11.52 22.11,-19.68 30.74,-24.49 8.01,-5.43 16.33,-12.85 25,-22.11 4.49,-5.78 8.01,-11.72 10.58,-17.81 2.9,-6.37 6.57,-13.12 11.06,-20.16 3.2,-3.86 7.03,-7.69 11.52,-11.56 4.18,-4.18 6.41,-8.16 6.76,-12.03 2.89,17.66 -4.84,38.79 -23.09,63.48 -8.67,12.15 -18.9,24.68 -30.78,37.46 -11.83,12.22 -24.33,24.69 -37.5,37.54 -25,23.4 -47.93,44.37 -68.71,62.97 -20.86,18.59 -43.28,36.21 -67.3,52.89 -19.89,8.63 -38.99,17.77 -57.27,27.38 -18.24,9.96 -36.83,19.88 -55.74,29.84 -18.59,10.24 -38.28,20.16 -59.14,29.77 -10.55,4.8 -21.49,9.61 -32.7,14.41 -11.21,4.18 -22.89,8.21 -35.11,12.03 -0.63,-5.74 -3.68,-9.14 -9.1,-10.07 -5.12,-0.63 -11.41,-0.47 -18.76,0.46 -7.34,0.98 -14.41,1.45 -21.13,1.45 -6.44,0.31 -11.25,-0.98 -14.45,-3.87 m 125,24.07 c 6.41,-6.41 16.01,-12.82 28.87,-19.26 12.81,-6.72 26.91,-13.79 42.26,-21.14 7.74,-3.51 15.43,-7.22 23.13,-11.05 7.34,-3.87 14.57,-7.7 21.64,-11.52 14.41,-7.39 26.56,-14.61 36.48,-21.64 7.07,-6.1 13.99,-12.19 20.7,-18.29 6.72,-6.09 16.02,-12.96 27.86,-20.66 2.89,-3.2 4.68,-6.09 5.31,-8.67 0.62,-2.54 3.67,-5.74 9.14,-9.61 8.67,-1.56 18.91,-6.09 30.74,-13.44 11.88,-7.07 24.03,-14.92 36.56,-23.55 12.15,-8.67 23.25,-15.9 33.17,-21.64 10.23,-5.43 18.44,-7.35 24.53,-5.78 -4.49,8.98 -13.16,18.59 -25.98,28.82 -12.5,10.28 -25.66,21.49 -39.41,33.68 -6.76,7.07 -13.48,14.57 -20.2,22.61 -6.4,7.7 -13.28,14.73 -20.7,21.14 -17.62,15.07 -33.94,27.22 -48.98,36.56 -7.7,4.8 -14.93,9.1 -21.64,12.93 -7.07,3.55 -13.79,6.76 -20.2,9.65 -12.81,5.11 -25,8.94 -36.56,11.56 -11.53,2.19 -23.05,3.48 -34.61,3.83 -12.15,8 -24.18,12.65 -36.06,13.9 -11.83,1.29 -23.86,5.16 -36.05,11.57 m 410.58,-450.47 3.36,2.89 c -5.15,8.63 -9.6,15.7 -13.47,21.17 -3.83,5.08 -9.46,11.01 -16.84,17.73 -2.22,-3.82 0,-10.04 6.72,-18.71 6.76,-8.36 13.52,-16.01 20.23,-23.08 m -33.16,47.11 c 1.56,1.91 3.99,2.26 7.19,0.97 -5.43,7.35 -9.61,10.74 -12.5,10.12 -2.54,-0.66 -0.78,-4.38 5.31,-11.09 m -10.62,-21.14 c -11.84,17.31 -23.87,34.3 -36.06,50.94 -16.33,9.3 -34.57,22.31 -54.76,38.98 -19.89,16.33 -39.26,29.61 -58.21,39.89 12.5,-12.81 27.42,-25.2 44.73,-37.03 8.63,-6.1 17.3,-12.5 25.98,-19.26 8.63,-6.99 16.95,-14.57 24.96,-22.58 17.97,-18.91 34.14,-38.59 48.55,-59.14 14.14,-20.51 26.45,-40.66 37.03,-60.55 3.56,2.23 4.49,6.25 2.89,12.03 -1.6,5.43 -1.75,10.04 -0.47,13.95 -11.25,10.86 -22.77,25.16 -34.64,42.77 m -159.11,136.02 c -3.86,4.18 -8.51,8.55 -13.94,13.01 -5.47,4.8 -9.77,6.4 -12.97,4.8 6.72,-4.45 11.84,-8.2 15.35,-11.05 3.24,-2.89 7.07,-5.12 11.56,-6.76 M 1451.41,259.102 c -3.21,0.668 -5.32,0.468 -6.25,-0.473 -0.63,-0.617 -3.05,-1.481 -7.23,-2.418 0.31,-2.891 2.89,-3.871 7.73,-2.891 5.08,1.289 7,3.2 5.75,5.782 M 312.5,1613.87 c -57.699,-125.63 -87.031,-261.68 -87.969,-408.17 0.309,-86.21 10.899,-169.22 31.68,-249.02 20.859,-80.121 50.82,-155.43 89.918,-225.981 -1.91,11.879 -4.649,23.75 -8.16,35.629 -6.09,17.621 -12.66,34.922 -19.688,51.871 -6.761,16.68 -13.359,33.321 -19.73,50 -3.242,8.36 -6.403,16.68 -9.602,25.039 -2.898,8.321 -5.469,16.684 -7.699,24.961 -2.578,8.321 -4.961,16.531 -7.23,24.531 -1.911,8.321 -3.508,16.68 -4.801,25 -8.008,23.399 -15.547,47.93 -22.617,73.56 -6.723,25.66 -10.391,52.38 -11.012,80.31 -3.211,5.08 -5.469,12.15 -6.762,21.13 -1.25,9.26 -2.066,19.38 -2.379,30.28 0,10.58 0.621,20.97 1.91,31.25 0.981,9.96 1.911,18.44 2.891,25.51 -1.289,17.93 -1.449,37.18 -0.469,57.69 1.25,9.88 2.379,20.16 3.36,30.74 0.937,10.28 2.418,20.51 4.339,30.78 1.559,10.24 3.321,20.51 5.27,30.75 2.23,9.96 4.488,19.88 6.719,29.8 2.261,9.65 4.492,19.26 6.722,28.87 2.579,9.26 4.957,18.24 7.219,26.91 6.102,24.34 13.168,49.22 21.141,74.53 8.039,24.96 17.461,49.5 28.359,73.56 -0.281,0.31 -0.789,0.47 -1.41,0.47 m 1881.17,-275.94 c -5.43,-2.54 -10.9,-4.96 -16.33,-7.23 -5.74,-2.22 -11.56,-3.51 -17.34,-3.86 -6.37,-13.79 -13.75,-18.75 -22.07,-14.89 -8.05,4.18 -16.52,10.08 -25.51,17.78 -7.69,16.36 -12.65,36.05 -14.92,59.18 -2.54,23.39 -3.95,43.39 -4.3,60.07 1.29,1.57 2.27,3.52 2.89,5.75 0.63,2.26 2.07,3.39 4.34,3.39 1.91,2.9 2.38,7.19 1.45,12.93 -0.63,5.83 -0.98,11.1 -0.98,15.9 8.01,6.41 13.63,16.21 16.83,29.34 2.54,12.46 6.22,25 11.02,37.5 -6.05,26.91 -15.2,53.2 -27.34,78.83 -11.88,25.66 -25.98,50 -42.35,73.08 -16.33,23.4 -33.79,45.35 -52.38,65.86 -18.91,20.82 -37.85,40.55 -56.72,59.14 -1.29,4.81 -4.34,9.46 -9.14,13.95 -5.16,4.14 -8.2,8.47 -9.18,12.97 -12.15,10.54 -24.96,21.79 -38.44,33.67 -6.72,5.74 -13.43,11.68 -20.15,17.77 -6.76,5.78 -13.52,11.53 -20.24,17.31 -13.43,12.15 -26.44,23.71 -38.94,34.61 -12.15,11.56 -23.05,22.11 -32.66,31.72 -7.69,4.8 -14.45,7.69 -20.23,8.67 -4.46,3.2 -7.86,6.36 -10.04,9.61 -1.96,2.89 -4.53,5.93 -7.7,9.14 -6.76,4.18 -13.16,8.16 -19.26,11.99 -5.78,3.55 -11.36,7.07 -16.79,10.62 -10.63,7 -21.02,13.79 -31.25,20.16 -8.71,10.59 -21.99,21.13 -39.96,31.72 -17.89,10.9 -36.06,20.51 -54.3,28.87 -9.26,3.82 -18.75,7.54 -28.36,11.05 -10.23,2.58 -21.13,5.43 -32.7,8.67 -14.72,4.14 -29.96,7.97 -45.7,11.53 -3.47,0.97 -7.19,1.75 -11.01,2.38 -3.83,0.66 -7.54,1.29 -11.06,1.91 -7.69,1.29 -14.92,2.27 -21.64,2.89 -6.76,0.67 -13.12,0.82 -19.22,0.51 -5.78,-0.35 -11.21,-0.97 -16.37,-1.91 -11.21,2.54 -21.95,4.61 -32.18,6.25 -10.28,0.97 -20.24,1.76 -29.85,2.38 -18.24,0.98 -35.23,0.51 -50.93,-1.41 -15.39,-1.64 -30.16,-3.9 -44.22,-6.79 -13.79,-2.85 -27.58,-5.74 -41.37,-8.64 -17.62,1.65 -35.7,0.36 -54.3,-3.82 -8.67,-1.96 -17.18,-3.52 -25.5,-4.81 -8.01,-1.95 -15.36,-3.05 -22.11,-3.36 -1.92,-0.35 -2.86,-0.97 -2.86,-1.91 0,-0.98 0,-1.92 0,-2.89 -21.83,-4.18 -43.12,-8.36 -63.98,-12.54 -20.82,-3.83 -41.64,-8.95 -62.5,-15.35 -32.031,-3.87 -63.75,-8.67 -95.16,-14.42 -18.941,-4.49 -37.18,-10.27 -54.801,-17.3 -8.668,-3.56 -17.308,-7.23 -25.98,-11.1 -8.32,-4.18 -16.641,-8.28 -25,-12.46 -32.379,-17.96 -63.32,-36.05 -92.809,-54.37 -7.66,-9.26 -17.769,-17.11 -30.269,-23.52 -12.5,-6.09 -25.473,-13.32 -38.949,-21.64 -4.18,-2.89 -8.321,-5.78 -12.5,-8.63 -4.18,-2.89 -8.161,-6.13 -12.032,-9.65 -7.968,-6.76 -15.699,-13.32 -23.05,-19.69 -14.411,-13.79 -27.731,-24.37 -39.879,-31.75 -7.071,-9.97 -15.391,-21.14 -25.039,-33.64 -9.262,-12.5 -19.063,-25.47 -29.301,-38.94 -9.922,-13.48 -19.879,-26.29 -29.801,-38.48 -8.98,-12.5 -17.66,-23.05 -25.98,-31.72 -3.821,-7.38 -7.379,-13.94 -10.54,-19.69 -3.558,-5.78 -6.289,-12.38 -8.21,-19.72 -5.11,-8.36 -10.27,-17.15 -15.348,-26.45 -5.152,-9.29 -10.274,-18.75 -15.434,-28.36 -9.918,-19.21 -19.566,-39.1 -28.828,-59.64 -8.98,-20.51 -17.461,-41.49 -25.461,-62.93 -3.871,-10.94 -7.539,-22 -11.097,-33.21 -1.911,-5.11 -3.832,-10.54 -5.743,-16.36 l -4.339,-16.33 c -12.809,-44.89 -22.11,-89.57 -27.891,-134.1 -5.777,-44.26 -8.32,-86.41 -7.688,-126.49 -0.281,-7.34 0,-14.41 0.969,-21.13 0.942,-6.72 1.918,-13.44 2.891,-20.16 0.668,-6.44 1.097,-13.01 1.449,-19.72 0.621,-6.72 0.621,-13.64 0,-20.71 3.828,-9.92 7.539,-21.64 11.02,-35.08 3.55,-13.43 6.91,-27.73 10.109,-42.77 3.871,-14.76 7.07,-29.34 9.609,-43.749 3.242,-14.449 5.782,-27.582 7.703,-39.449 4.489,-12.153 9.289,-24.032 14.45,-35.551 4.808,-11.871 10.23,-22.301 16.328,-31.25 0.98,-10.27 3.511,-19.731 7.691,-28.359 4.461,-8.672 8.641,-17.622 12.5,-26.954 1.918,-4.808 3.828,-9.609 5.75,-14.418 1.949,-4.449 3.86,-9.14 5.781,-13.941 3.547,-9.258 6.868,-18.75 10.11,-28.359 3.828,-8.95 7.5,-18.09 11.058,-27.418 l 10.59,-27.852 c 3.821,-8.988 7.5,-18.09 11.051,-27.43 4.141,-8.98 8.32,-17.96 12.5,-26.91 8.32,-17.929 17.621,-35.59 27.852,-52.89 2.269,-2.852 3.046,-4.809 2.418,-5.739 -0.309,-0.98 -0.93,-1.921 -1.911,-2.89 12.813,-18.602 26.563,-37.5 41.332,-56.723 45.821,-51.328 96.329,-97.457 151.438,-138.476 2.891,-1.602 5.781,-3.051 8.641,-4.332 8.359,-4.18 16.519,-8.168 24.531,-12 16.328,-7.071 32.379,-13.938 48.078,-20.661 6.723,-4.808 13.641,-9.179 20.711,-13.007 53.512,-19.883 107.648,-37.032 162.461,-51.442 54.801,-14.109 108.939,-28.871 162.499,-44.219 5.78,-1.921 11.72,-3.402 17.77,-4.339 6.09,-0.313 12.19,-0.821 18.28,-1.442 12.19,-1.289 23.87,-3.519 35.12,-6.719 33.28,0.618 67.93,0 103.83,-1.921 17.93,-0.969 35.74,-1.481 53.36,-1.481 8.67,-0.269 17.14,-0.43 25.46,-0.43 8.68,0.27 17,0.621 25,0.942 6.76,2.539 13.79,4.488 21.18,5.781 7.03,1.559 14.41,2.887 22.07,3.828 15.43,1.602 30.62,3.039 45.7,4.328 3.2,-0.656 4.02,-1.437 2.38,-2.418 -1.91,-1.289 -3.32,-2.691 -4.29,-4.34 10.23,5.79 20.82,9.649 31.72,11.571 10.58,2.219 21.64,3.508 33.16,3.859 11.25,0.629 22.77,1.762 34.65,3.32 11.52,1.641 23.04,4.809 34.57,9.61 -0.63,-2.539 0.35,-3.469 2.89,-2.852 2.58,0.313 4.53,0.313 5.78,0 7.69,2.852 14.92,5.633 21.64,8.172 52.54,21.481 102.54,46.949 149.96,76.442 24.69,21.488 49.06,42.617 73.13,63.476 18.86,15.391 37.03,30.902 54.29,46.641 17,15.98 33.36,32.191 49.07,48.511 15.39,16.059 29.96,32.231 43.75,48.559 7.07,8.051 13.78,16.211 20.15,24.531 3.24,4.18 6.45,8.2 9.61,12.032 2.89,4.179 5.78,8.32 8.67,12.5 4.18,6.367 8.17,12.66 12.03,18.75 3.83,6.41 8.79,11.207 14.93,14.418 -9.61,-25.321 -24.38,-51.45 -44.26,-78.36 71.48,86.211 126.91,182.5 166.37,288.899 39.72,106.761 59.72,220.241 60.07,340.391 0,44.85 -2.89,88.95 -8.67,132.23 m -69.22,488.44 c 1.29,0.31 3.05,-0.63 5.28,-2.89 1.91,-1.92 3.39,-1.92 4.33,0 -3.51,4.8 -5.94,8.63 -7.22,11.52 -1.25,3.2 -3.99,7.38 -8.13,12.54 -0.66,-2.58 0,-5.94 1.91,-10.12 1.92,-4.18 3.21,-7.85 3.83,-11.05 m 15.9,-43.25 c -0.35,-4.8 0.94,-10.74 3.83,-17.81 2.89,-7.07 6.21,-14.57 10.08,-22.61 3.83,-8.01 7.54,-15.71 11.05,-23.05 3.52,-7.7 5.78,-14.45 6.72,-20.24 3.24,-2.53 6.13,-2.53 8.67,0 -4.8,9.65 -8.82,17.82 -11.99,24.54 -3.24,7.07 -5.94,13.47 -8.2,19.25 -4.46,10.86 -11.21,24.18 -20.16,39.92 m 296.6,-480.31 c -2.57,-19.22 -7.54,-32.81 -14.92,-40.86 1.95,-15.7 0.35,-27.54 -4.8,-35.58 -2.23,7.07 -4.34,10.9 -6.25,11.52 -1.6,0.66 -3.52,0.51 -5.78,-0.43 -1.92,-0.98 -4.61,-0.51 -8.13,1.41 -0.98,6.09 -1.48,10.62 -1.48,13.47 0.35,3.21 0.82,7.39 1.48,12.5 -5.16,8.32 -10.74,13.79 -16.84,16.33 -6.09,2.27 -12.5,5 -19.25,8.21 -6.72,3.51 -13.13,10.89 -19.22,22.1 -2.27,10.55 -4.81,19.07 -7.7,25.47 -3.2,6.72 -6.25,13.95 -9.14,21.64 -2.89,8.01 -5.43,18.91 -7.69,32.7 -2.89,-2.23 -3.68,-8.05 -2.39,-17.31 1.61,-9.6 2.89,-19.1 3.83,-28.36 -1.91,-0.97 -3.2,-2.1 -3.83,-3.39 -0.97,-1.61 -2.26,-0.78 -3.82,2.42 -1.96,-17.97 -5.32,-32.03 -10.12,-42.31 -4.81,-10.23 -9.14,-21.17 -13.01,-32.69 -7.69,-3.2 -14.41,-3.36 -20.16,-0.51 1.29,-21.13 1.92,-42.26 1.92,-63.44 0,-8.94 0,-17.77 0,-26.44 0.94,2.58 1.91,4.96 2.89,7.22 4.8,-2.53 6.87,-7.69 6.25,-15.39 -0.35,-7.69 -1.13,-15.54 -2.42,-23.55 -0.98,-7.7 0,-13.01 2.89,-15.86 -0.63,-3.87 -1.6,-6.76 -2.89,-8.67 -0.98,-2.27 -1.92,-4.46 -2.89,-6.72 -1.92,-44.53 -10.08,-84.14 -24.53,-118.751 -23.68,-117.617 -65.2,-226.41 -124.5,-326.449 -1.91,-4.141 -3.67,-8.32 -5.31,-12.5 1.33,-4.18 1.95,-10.07 1.95,-17.77 0,-7.34 -2.73,-16.8 -8.16,-28.359 -1.29,-10.231 -2.89,-21.481 -4.81,-33.633 -2.26,-11.558 -5.15,-24.219 -8.67,-38.008 -3.86,-13.789 -8.94,-28.05 -15.39,-42.769 -3.51,-7.391 -7.18,-14.93 -11.01,-22.582 -4.53,-7.418 -9.18,-14.918 -13.99,-22.617 -6.4,-5.782 -12.65,-11.051 -18.75,-15.864 -6.09,-4.488 -12.15,-8.668 -18.24,-12.5 -11.52,-7.34 -22.62,-13.277 -33.16,-17.808 -21.84,-8.629 -42.66,-15.348 -62.5,-20.16 -22.11,-9.961 -43.75,-18.161 -64.93,-24.532 -7.38,-2.258 -14.6,-4.488 -21.6,-6.718 -69.57,-50.969 -144.57,-93.282 -225.04,-126.95 -35.89,-21.8 -72.11,-41.172 -108.67,-58.121 -4.45,0 -10.7,-1.328 -18.71,-3.867 -9.61,-8.672 -22.58,-15.391 -38.94,-20.203 -7.7,-2.578 -15.71,-5.27 -24.07,-8.16 -8.63,-2.27 -16.95,-4.957 -24.96,-8.199 -5.47,-1.29 -8.36,-1.098 -8.67,0.5 -0.66,1.609 -3.2,1.921 -7.66,0.98 -13.16,-6.449 -28.71,-11.25 -46.68,-14.449 -17.93,-3.211 -36.68,-5.43 -56.25,-6.719 -19.53,-0.98 -38.59,-1.602 -57.18,-1.961 -18.6,-0.312 -35.59,-1.402 -50.98,-3.32 -4.8,0.629 -9.77,1.25 -14.88,1.918 -4.81,0.98 -9.81,1.761 -14.92,2.383 -9.93,1.289 -19.85,2.418 -29.81,3.398 -20.51,2.191 -40.86,4.609 -61.01,7.191 -19.89,2.848 -38.83,6.25 -56.759,10.079 -17.972,4.492 -33.992,9.609 -48.089,15.39 -35.903,9.961 -70.981,21.481 -105.274,34.641 -33.988,13.437 -66.168,27.699 -96.637,42.781 -20.82,9.918 -41.171,18.75 -61.062,26.438 -9.918,3.832 -19.84,7.859 -29.801,12 -9.609,4.492 -19.058,9.492 -28.359,14.921 -5.778,3.508 -13.008,8.789 -21.641,15.86 -8.668,7.07 -16.168,13.121 -22.617,18.238 -4.449,2.891 -9.262,5.781 -14.41,8.672 -4.813,3.199 -8.789,6.09 -12.031,8.668 -9.61,10.242 -16.18,19.851 -19.692,28.832 -3.828,8.988 -8.168,18.437 -12.969,28.359 -5.16,10.231 -14.257,21.95 -27.418,35.121 -4.461,4.797 -7.5,6.559 -9.14,5.27 -1.602,-1.289 -3.832,-0.981 -6.723,0.98 -4.488,4.797 -9.297,10.079 -14.418,15.86 -5.148,5.738 -10.109,11.519 -14.922,17.301 -10.226,11.207 -16.008,20.668 -17.297,28.359 -13.793,15.078 -27.07,29.809 -39.89,44.219 -6.711,7.07 -13.16,14.3 -19.211,21.64 -6.449,7.071 -12.539,14.41 -18.32,22.11 -6.059,7.691 -12,15.429 -17.739,23.09 -5.472,8 -10.742,16.011 -15.902,24.019 -10.899,16.68 -20.508,34.492 -28.859,53.359 -15.04,23.75 -28.481,49.372 -40.36,76.911 -12.18,27.582 -22.93,55.472 -32.18,83.671 -4.808,14.418 -9.46,28.559 -13.992,42.309 -4.179,14.102 -8.629,27.731 -13.437,40.902 -8.352,27.219 -17.301,52.539 -26.91,75.93 -1.602,9.609 -3.36,17.929 -5.313,24.999 -1.918,7.39 -3.668,14.26 -5.277,20.67 -1.949,6.41 -3.711,13.28 -5.27,20.7 -1.64,7.35 -2.582,15.98 -2.89,25.94 -3.832,-12.15 -6.871,-25.51 -9.141,-39.92 -2.539,-14.73 -4.18,-29.92 -4.801,-45.67 5.742,-29.141 10.11,-55.578 12.961,-79.328 2.891,-24.032 5.281,-47.582 7.192,-70.672 1.636,-11.211 3.398,-22.731 5.308,-34.61 0.629,-6.089 1.61,-12.031 2.891,-17.769 1.609,-6.133 3.211,-12.191 4.808,-18.281 3.2,-12.192 7.231,-24.84 12.032,-37.969 5.121,-13.16 11.371,-26.801 18.75,-40.859 l -4.34,-1.911 c 6.41,-9.961 10.59,-19.57 12.5,-28.871 2.269,-9.3 5.59,-19.058 10.121,-29.34 9.609,-16.32 20,-30.269 31.25,-41.832 11.84,-11.168 22.699,-21.449 32.656,-30.738 0.973,-7.07 2.731,-14.301 5.313,-21.64 -8.981,4.179 -18.121,11.871 -27.422,23.082 -9.61,11.207 -18.399,21.796 -26.449,31.718 -6.09,7.032 -12.649,15.231 -19.719,24.532 -7.031,9.609 -14.571,24.027 -22.582,43.238 -4.489,11.25 -7.699,22.148 -9.61,32.738 -1.91,10.902 -4.808,21.762 -8.668,32.652 -4.179,10.282 -8.48,20.508 -12.972,30.79 -4.489,10.582 -6.559,18.589 -6.25,24.019 -3.828,8.672 -7.5,16.172 -11.059,22.621 -1.289,8 -2.262,15.352 -2.89,22.11 -0.309,6.402 -2.379,15.5 -6.25,27.378 2.929,9.961 3.71,21.801 2.429,35.582 -1.289,14.11 -3.398,29.5 -6.289,46.141 -3.172,16.68 -6.211,33.508 -9.109,50.5 -1.281,8.329 -2.571,16.679 -3.821,24.999 -0.98,8.01 -1.761,15.86 -2.429,23.56 -1.281,5.78 -0.973,8.63 0.937,8.63 1.961,0 3.051,1.33 3.403,3.87 -0.981,6.09 -1.911,12.19 -2.891,18.24 -0.941,6.1 -1.762,12.19 -2.422,18.32 -1.289,11.84 -2.379,23.56 -3.316,35.08 -0.981,23.05 -1.332,45.66 -0.981,67.77 0.629,22.15 1.758,44.07 3.36,65.86 0.629,10.59 1.289,21.49 1.91,32.7 0.937,10.9 1.918,21.95 2.898,33.16 1.91,29.18 4.602,58.32 8.16,87.54 3.243,29.14 11.09,61.64 23.551,97.58 1.289,5.78 3.051,9.1 5.281,10.08 1.911,0.94 3.707,2.07 5.309,3.36 0.98,11.56 3.359,24.84 7.191,39.92 4.489,14.73 8.008,28.36 10.618,40.86 -2.61,-0.63 -5.661,-3.05 -9.18,-7.23 -3.469,-3.87 -6.719,-7.19 -9.609,-10.08 -2.848,-2.89 -4.961,-2.73 -6.25,0.47 4.179,5.12 8.21,9.14 12.031,12.03 3.828,2.54 7.859,5.75 12.039,9.61 3.82,9.3 7.961,18.4 12.5,27.39 3.82,8.98 7.691,17.96 11.519,26.91 7.34,17.66 14.77,35.43 22.11,53.4 7.691,17.62 15.703,35.39 24.062,53.36 8.949,17.97 18.598,35.7 28.828,53.36 -3.871,1.6 -8.48,-0.47 -13.949,-6.25 -5.43,-5.74 -10.43,-8.99 -14.879,-9.61 2.539,1.91 5.27,5.11 8.129,9.61 2.891,4.8 5.93,9.61 9.18,14.41 -3.25,0.98 -6.918,-0.15 -11.102,-3.36 -4.136,-2.89 -8.468,-6.56 -12.929,-11.05 -1.95,-4.18 -1.329,-5.47 1.921,-3.83 2.891,1.91 3.668,0.62 2.379,-3.87 -6.41,-8.98 -12.148,-15.51 -17.308,-19.69 -5.153,-4.18 -9.449,-4.8 -13,-1.95 -5.121,-8.01 -9.422,-14.88 -12.93,-20.66 -3.91,-5.43 -8.211,-8.48 -13.012,-9.14 -8.007,-12.15 -15.078,-24.03 -21.168,-35.55 -6.062,-11.56 -11.839,-22.77 -17.312,-33.67 -10.231,-21.8 -19.367,-42.97 -27.379,-63.48 -4.141,-10.23 -8.16,-20.35 -11.988,-30.27 -4.184,-9.92 -8.2112,-20.04 -12.0315,-30.31 -3.8711,-10.24 -8.0508,-20.51 -12.5,-30.75 -3.8711,-10.58 -8.211,-21.48 -13.0117,-32.69 -7.0704,-24.03 -14.2579,-50.31 -21.6407,-78.87 -3.1679,-13.79 -6.3672,-26.87 -9.6093,-39.37 -1.5586,-6.45 -3.0469,-12.54 -4.2969,-18.32 -1.6406,-5.43 -3.0508,-10.71 -4.3321,-15.82 -0.3593,-14.46 -1.9179,-31.26 -4.8085,-50.51 -2.2618,-19.22 -4.961,-38.6 -8.2032,-58.17 -2.2265,8.68 -2.3789,16.84 -0.4687,24.53 2.2304,8.01 4.0195,15.86 5.2695,23.56 4.1797,35.55 9.4922,71.8 15.9024,108.63 6.0898,36.56 14.7304,71.99 25.9375,106.25 5.7812,16.68 11.871,33.05 18.2812,49.03 6.4102,16.36 14.2617,36.87 23.551,61.56 1.289,3.83 2.078,7.22 2.39,10.12 0.348,3.2 1.129,6.87 2.418,11.01 10.903,31.13 25.161,61.88 42.813,92.34 17.887,30.12 35.078,60.24 51.406,90.36 -10.238,0.66 -21.797,-6.21 -34.566,-20.67 -21.211,-36.21 -37.032,-66.64 -47.66,-91.33 -10.551,-24.68 -20.313,-49.06 -29.3012,-73.08 -5.1094,8.63 -5.6211,20.51 -1.4414,35.54 4.1797,15.08 10.4296,33.21 18.7496,54.38 4.141,6.72 8.321,13.28 12.5,19.69 4.18,6.09 8.051,10.58 11.52,13.47 34.652,69.57 74.531,133.32 119.73,191.33 45.512,58.67 100.469,110.55 164.879,155.74 -2.218,-2.54 -2.539,-3.32 -0.968,-2.38 1.64,0.98 3.39,2.23 5.308,3.87 -5.43,-5.47 -11.367,-11.72 -17.777,-18.75 -6.75,-6.76 -13,-13.48 -18.781,-20.2 0.968,3.83 4.531,8.64 10.621,14.42 -6.762,-1.64 -12.661,-5.94 -17.813,-13.01 -4.808,-7.03 -9.918,-10.39 -15.348,-10.08 -3.91,-4.49 -5.16,-6.56 -3.91,-6.25 1.328,0 2.93,-0.31 4.84,-0.94 -4.84,-3.24 -9.449,-6.13 -13.941,-8.67 -4.18,-2.58 -9.918,-8.16 -17.309,-16.83 -2.851,-3.83 -4.64,-7.23 -5.269,-10.12 -0.621,-2.85 -1.129,-5.59 -1.481,-8.13 5.82,5.43 9.762,9.89 12.031,13.44 2.258,3.52 6.09,8.05 11.52,13.48 3.238,-0.35 6.758,0.47 10.59,2.42 4.179,1.91 8.508,3.67 13,5.23 0.937,1.96 1.609,3.72 1.918,5.32 0.312,1.25 2.07,3.36 5.312,6.25 5.739,5.74 7.66,7.03 5.739,3.82 -1.559,-3.16 -2.418,-5.58 -2.418,-7.18 9.648,6.72 19.57,14.41 29.847,23.04 10.539,8.36 16.172,16.21 16.832,23.6 7.969,3.47 18.707,9.41 32.188,17.77 13.121,8.05 25.781,16.95 38.011,26.92 11.79,9.96 19.641,19.37 23.508,28.35 6.102,2.27 12.703,5.63 19.731,10.12 7.031,4.14 14.73,8.99 23.082,14.42 7.969,5.43 16.488,11.36 25.469,17.81 8.949,5.74 18.128,11.83 27.39,18.24 18.899,12.5 37.692,23.05 56.289,31.72 18.59,8.98 35.071,13.94 49.492,14.92 19.571,10.55 37.809,18.91 54.797,25 8.321,3.2 16.84,6.06 25.512,8.67 8.281,2.19 17.109,4.3 26.449,6.21 35.231,15.08 74.18,28.52 116.789,40.39 42.621,11.88 87.032,20.71 133.172,26.45 46.13,6.09 91.52,8.67 136.05,7.7 44.53,-1.29 85.9,-5.16 124.02,-11.53 14.15,1.25 30.32,1.41 48.56,0.47 17.97,-1.6 38.63,-4.8 62.03,-9.61 14.1,-1.33 26.45,-1.6 37.03,-0.98 10.59,0.63 20.51,1.76 29.81,3.4 8.98,1.25 18.24,2.39 27.89,3.32 9.61,0.98 20.35,1.14 32.22,0.51 -1.32,2.23 -3.86,4.3 -7.73,6.21 -4.14,1.96 -8.32,3.87 -12.5,5.78 7.38,0.67 15.08,-1.4 23.08,-6.21 8.01,-4.53 14.89,-6.91 20.67,-7.22 -0.31,2.85 -3.01,5.58 -8.17,8.16 -5.46,2.89 -12.18,5.62 -20.19,8.16 -8.01,2.93 -16.02,5.79 -24.02,8.68 -7.7,3.2 -13.99,6.91 -18.79,11.05 -25.59,6.41 -47.58,12.66 -65.82,18.75 -18.28,5.12 -38.64,9.61 -61.1,13.44 -11.17,0.97 -21.6,0.82 -31.25,-0.47 -9.88,-0.94 -19.84,-1.29 -29.76,-0.94 -14.14,0.63 -26.92,2.07 -38.48,4.3 -11.56,2.26 -23.24,2.58 -35.12,0.98 -3.16,0.93 -5.07,2.42 -5.74,4.33 -0.62,1.92 -3.36,3.2 -8.16,3.83 -11.25,-2.27 -23.71,-3.52 -37.5,-3.83 -13.48,-0.62 -27.89,-1.13 -43.28,-1.48 -30.79,-0.28 -62.35,-3.17 -94.73,-8.64 -33.01,-6.4 -63.44,-14.76 -91.328,-25 -27.852,-9.61 -53.204,-19.88 -75.942,-30.78 -4.18,-1.25 -7.531,-1.91 -10.109,-1.91 -2.231,-0.31 -4.813,-0.63 -7.699,-0.98 -9.262,-5.43 -17.813,-9.61 -25.473,-12.46 -8.039,-2.89 -17.649,-6.76 -28.828,-11.56 1.289,2.89 1.41,4.49 0.429,4.8 -0.929,0.35 -2.07,1.76 -3.32,4.38 1.918,0 3.68,-0.2 5.281,-0.51 1.598,-0.35 4.489,0.16 8.668,1.45 5.782,1.6 9.102,3.36 10.082,5.27 1.289,1.91 3.2,3.67 5.739,5.31 8.98,0.63 17.808,2.54 26.441,5.74 8.68,2.89 17.309,6.25 26.02,10.12 8.629,3.87 17.269,7.7 25.937,11.52 8.633,3.52 17.301,6.1 25.942,7.7 11.871,8.98 26.281,16.68 43.28,23.09 16.68,6.09 36.21,11.4 58.67,15.86 19.53,2.89 38.91,4.33 58.12,4.33 19.57,-0.31 39.11,-0.51 58.68,-0.51 6.71,0.36 13.78,0.51 21.13,0.51 7.07,0.31 14.14,0.31 21.17,0 14.77,0.31 29.34,0.47 43.75,0.47 14.77,-0.62 28.98,-1.29 42.77,-1.91 13.79,-0.63 26.8,-1.92 38.95,-3.87 2.89,0 4.34,0.62 4.34,1.95 0.31,0.94 2.1,1.41 5.27,1.41 16.99,0 33.67,-1.41 50,-4.3 16.37,-2.89 32.38,-6.56 48.08,-11.09 31.45,-10.55 62.19,-21.92 92.31,-34.1 9.61,-3.52 19.88,-6.76 30.78,-9.61 10.9,-3.25 21.64,-6.57 32.23,-10.12 10.9,-3.2 20.78,-7.19 29.76,-11.99 9.34,-4.81 17.03,-10.59 23.13,-17.35 38.44,-9.92 76.76,-24.02 114.88,-42.26 38.13,-18.6 73.4,-39.61 105.74,-63.01 32.39,-23.4 59.14,-47.42 80.32,-72.11 15.07,-11.21 28.86,-22.46 41.32,-33.63 12.5,-11.53 22.46,-21.99 29.81,-31.25 16.99,-12.5 31.76,-25.04 44.26,-37.54 12.14,-12.81 23.39,-25.63 33.63,-38.44 10.58,-12.81 21.33,-26.25 32.19,-40.39 5.78,-6.72 12.03,-13.79 18.75,-21.13 6.44,-7.38 13.36,-15.08 20.7,-23.09 3.51,-1.29 6.87,-2.38 10.12,-3.36 3.16,-0.97 5.89,-0.78 8.12,0.47 9.96,-13.12 17.34,-24.84 22.15,-35.12 5.12,-10.54 8.48,-19.68 10.08,-27.38 7.07,-7.03 13.94,-15.23 20.66,-24.53 7.07,-9.26 13.95,-18.87 20.71,-28.83 13.08,-20.86 25.11,-37.65 36.05,-50.47 1.56,-7.38 6.09,-17.46 13.44,-30.27 7.38,-12.85 13.79,-23.13 19.22,-30.82 1.64,1.95 2.26,4.8 1.91,8.67 0,4.18 2.11,4.18 6.29,0 1.91,-6.72 1.56,-11.21 -0.98,-13.48 -2.26,-1.91 -3.67,-4.96 -4.33,-9.1 6.75,-9.29 12.65,-20.04 17.77,-32.18 4.8,-12.54 5.47,-20.86 1.95,-25.04 5.12,-11.53 9.77,-23.05 13.95,-34.61 3.83,-11.53 7.23,-22.93 10.12,-34.1 6.05,-22.78 11.01,-45.71 14.84,-68.79 0.98,-5.75 1.95,-11.68 2.89,-17.78 0.98,-5.78 1.8,-11.72 2.42,-17.77 1.92,-12.19 3.67,-24.53 5.31,-37.03 1.92,-12.5 3.68,-25.63 5.28,-39.42 1.91,-13.16 3.83,-27.07 5.74,-41.83 -0.63,-21.17 -2.07,-41.37 -4.3,-60.59 M 2208.59,442.73 c -6.09,0.36 -14.1,-4.8 -24.06,-15.351 2.89,-0.617 6.6,1.101 11.09,5.281 4.81,4.141 9.15,7.539 12.97,10.07 M 1790.31,167.77 c 10.59,6.718 16.99,12.66 19.26,17.781 -6.41,-3.563 -10.74,-6.719 -12.97,-9.61 -1.95,-2.582 -4.02,-5.32 -6.29,-8.171 m -55.27,-33.2 c 6.72,3.52 13.79,7.071 21.13,10.59 7.7,3.82 11.56,7.07 11.56,9.61 -6.09,-4.809 -12.96,-8.641 -20.66,-11.532 -8.01,-2.886 -12.03,-5.777 -12.03,-8.668 m -37.97,-11.05 c -4.18,-1.25 -7.38,-1.758 -9.61,-1.411 -2.26,0.621 -6.09,-0.347 -11.52,-2.89 0.27,-2.27 3.32,-2.887 9.1,-1.918 5.47,0.937 9.45,3.051 12.03,6.219 m -36.05,-24.0317 c 3.2,2.8907 3.36,4.4607 0.46,4.8127 -2.89,0.621 -6.71,0.347 -11.52,-0.981 0.31,-1.91 1.09,-3.4802 2.42,-4.8005 1.57,-0.9375 4.46,-0.6289 8.64,0.9688 m -52.9,-18.75 c 3.52,0.9414 6.26,2.0703 8.21,3.3633 1.56,1.289 4.14,2.5781 7.65,3.8672 -4.18,-2.8868 -4.49,-4.0196 -0.93,-3.3985 3.51,0.9805 7.85,2.418 12.93,4.3399 5.15,2.2617 7.85,4.0195 8.2,5.2695 -5.78,-2.5391 -9.96,-3.5195 -12.5,-2.8906 0,0.9804 0.62,1.9492 1.91,2.8906 0.98,0.9805 1.14,1.9101 0.47,2.8906 -5.08,-3.1601 -11.01,-6.2109 -17.73,-9.1015 -6.76,-2.8868 -13.99,-5.629 -21.64,-8.1993 -15.39,-5.75 -31.6,-11.6797 -48.56,-17.7812 -0.35,-3.1992 1.25,-3.5078 4.81,-0.9688 3.83,2.5703 6.72,3.1993 8.63,1.9102 -3.83,-2.5391 -9.77,-4.918 -17.77,-7.1914 -8.05,-1.9063 -12.03,-1.2891 -12.03,1.9219 -25.98,-9.3008 -50.94,-16.4883 -75,-21.6407 -24.38,-5.1211 -46.49,-11.6797 -66.37,-19.6875 -10.24,2.5782 -20.51,1.4375 -30.74,-3.3632 -9.93,-4.48833 -16.49,-8.62896 -19.73,-12.50005 16.99,2.54297 31.87,5.26953 44.73,8.16016 12.81,2.89059 24.53,5.94139 35.07,9.14059 10.9,3.211 21.8,6.211 32.74,9.1094 10.86,2.8906 22.89,5.6602 36.05,8.2031 7.97,5.7383 19.65,9.1368 35.08,10.1172 15.39,0.9297 27.54,3.4727 36.52,7.6524 -3.51,0.9804 -3.67,2.2695 -0.46,3.8672 3.16,1.5625 8,3.6718 14.41,6.2109 6.41,2.2695 12.66,4.6914 18.75,7.2305 6.41,2.2617 11.21,4.3281 14.41,6.289 2.54,-0.6679 4.81,-1.4883 6.72,-2.4297 1.6,-0.9687 4.38,-1.3203 8.21,-0.9687 0,1.289 1.75,2.5703 5.27,3.8281 3.2,1.3203 5.12,2.6094 5.74,3.8594 -7.65,-3.1992 -12.15,-4.4883 -13.44,-3.8594 -1.28,0.6602 -1.91,1.6406 -1.91,2.8906 -0.35,1.2813 -2.89,1.6407 -7.7,0.9688 M 506.211,235.551 c 7.699,-3.832 14.609,-8.321 20.699,-13.481 6.102,-5.121 12.82,-8.949 20.16,-11.519 -4.449,4.488 -11.84,10.539 -22.07,18.281 -10.27,7.34 -16.52,9.609 -18.789,6.719 m 12.027,44.219 c -14.718,8.98 -28.359,19.57 -40.859,31.75 -12.809,11.878 -26.25,23.21 -40.391,34.14 l -3.316,-3.39 c 5.43,-8.989 12.308,-16.961 20.629,-24.032 8,-7.379 16.828,-15.699 26.437,-25 6.102,-1.949 12.66,-4.84 19.731,-8.668 7.07,-3.519 12.972,-5.121 17.769,-4.8 M 336.52,409.102 c -49.329,58.007 -86.68,115.078 -111.989,171.128 -5.781,8.68 -10.429,17.348 -13.98,25.981 -3.481,8.32 -8.129,15.551 -13.91,21.641 3.199,1.918 2.539,7.347 -1.95,16.328 -4.14,8.98 -8.64,16.84 -13.441,23.59 -2.891,0.941 -5.941,1.41 -9.141,1.41 -3.199,-0.309 -4.961,-1.602 -5.269,-3.828 5.43,-10.231 10.89,-20.704 16.32,-31.25 5.121,-10.582 10.281,-20.821 15.391,-30.782 4.5,-9.922 8.679,-19.371 12.5,-28.359 3.871,-8.359 6.918,-16.012 9.109,-23.082 4.531,-7.699 8.981,-15.668 13.512,-24.027 4.449,-8.051 9.098,-16.332 13.906,-25 4.801,-8.364 9.762,-16.993 14.922,-25.973 5.121,-8.328 10.391,-16.801 15.859,-25.469 5.43,-8.68 11.051,-17.148 16.84,-25.469 6.051,-8.011 12.34,-15.859 18.711,-23.562 6.442,-8 13.16,-15.43 20.231,-22.149 6.718,-7.031 13.91,-13.589 21.597,-19.679 4.492,-5.781 8.992,-11.41 13.481,-16.84 4.801,-5.121 9.801,-9.922 14.883,-14.41 9.957,-8.992 20.078,-17.621 30.308,-25.981 20.82,-15.351 42.469,-32.808 64.93,-52.379 4.18,-1.921 8.281,-4.031 12.461,-6.25 4.488,-2.23 6.91,-1.293 7.219,2.848 -29.18,25.043 -57.5,51.133 -85.071,78.402 -27.578,26.911 -53.398,54.649 -77.429,83.161 M 41.8398,955.738 c -3.25,11.84 -6.5703,23.211 -10.121,34.141 -3.8672,10.861 -6.7188,22.271 -8.668,34.101 -2.1914,11.84 -3.9922,24.54 -5.2422,38.01 -0.9688,13.44 -1.7578,27.07 -2.418,40.86 -0.3125,7.03 -0.6211,13.95 -0.9804,20.67 -0.3086,6.71 -0.6211,13.43 -0.9688,20.19 -0.2812,13.44 -1.4101,26.09 -3.3203,37.97 3.1602,7.34 4.1406,12.81 2.8906,16.33 -1.6406,3.55 -1.332,11.25 0.9375,23.08 -1.6094,2.23 -3.5586,4.34 -5.74998,6.25 -1.94922,1.92 -3.55078,1.45 -4.80078,-1.44 -1.63672,-1.29 -2.777346,-4.18 -3.39844,-8.63 1.28906,-13.17 1.76172,-25.32 1.44922,-36.57 0.3125,-11.21 1.44141,-22.77 3.35156,-34.61 -3.820311,-34.96 -4.01953,-69.25 -0.46094,-102.89 3.51172,-33.67 9.60936,-67.11 18.28126,-100.47 8.6289,-33.671 19.0195,-67.929 31.25,-102.89 12.1484,-35.27 25.6172,-72.57 40.3477,-111.988 2.582,-3.243 5.3125,-7.071 8.1602,-11.563 3.242,-4.18 6.41,-8.988 9.609,-14.41 6.133,-15.399 12.852,-31.918 20.242,-49.539 7.692,-17.57 16.168,-34.762 25.43,-51.442 9.328,-16.636 19.102,-31.41 29.328,-44.218 10.282,-12.5 20.711,-21.45 31.25,-26.91 -11.519,21.128 -24.019,43.75 -37.457,67.808 -13.793,24.024 -27.109,48.711 -39.922,74.024 C 119.691,715.82 100.98,762.461 84.6094,811.48 68.2813,860.199 54.0195,908.281 41.8398,955.738 M 200.941,1913.87 c 6.758,8.94 7.848,13.9 3.399,14.88 -6.719,-9.26 -7.86,-14.26 -3.399,-14.88 m 410.579,344.68 c -4.141,-2.22 -5.11,-2.38 -2.891,-0.46 1.922,1.91 3.832,3.67 5.75,5.27 1.641,1.95 -0.117,1.6 -5.238,-0.98 0.629,-1.25 -1.641,-3.16 -6.762,-5.74 -4.801,-2.23 -8.789,-4.49 -12.027,-6.76 0.347,-1.91 3.519,-1.56 9.609,0.98 6.129,2.58 9.961,5.16 11.559,7.69 m 759.61,-155.27 c -4.18,1.95 -9.18,3.52 -14.92,4.81 -5.43,1.29 -11.52,1.95 -18.28,1.95 -13.13,0.62 -26.25,0 -39.41,-1.95 -13.13,-1.92 -24.18,-4.18 -33.17,-6.72 1.29,-3.56 3.36,-6.76 6.25,-9.65 14.77,-0.94 27.42,-0.78 37.97,0.51 10.23,0.62 20.2,1.75 29.81,3.36 2.89,-3.21 9.29,-5.63 19.25,-7.19 9.92,-2.27 18.71,-3.4 26.45,-3.4 -0.35,8.01 -4.96,14.1 -13.95,18.28 m 175.94,327.89 c -0.94,5.12 -8.01,9.61 -21.17,13.44 -0.28,-2.58 2.26,-4.81 7.69,-6.72 5.47,-1.91 9.96,-4.18 13.48,-6.72 m 599.02,-391.83 c 32.7,-28.21 63.95,-61.88 93.75,-100.94 29.81,-38.83 56.41,-81.41 79.81,-127.89 2.54,-2.58 4.96,-4.49 7.19,-5.74 2.26,-0.98 4.96,-5.16 8.2,-12.54 3.83,-8.01 5.9,-14.42 6.25,-19.22 0.31,-4.81 2.89,-11.72 7.69,-20.71 4.81,1.96 5.75,7.54 2.9,16.84 -2.62,9.3 -5,18.28 -7.23,26.91 -2.23,8.99 -0.63,13.95 4.8,14.93 -27.89,42.3 -56.87,83.36 -87.03,123.08 -29.8,39.42 -62.97,77.54 -99.53,114.42 -10.23,5.78 -18.24,6.72 -24.02,2.89 2.54,-2.89 4.8,-5.47 6.72,-7.7 1.95,-2.58 2.11,-3.98 0.5,-4.33 m 210.08,-836.02 c 0,-5.47 0.16,-10.9 0.51,-16.33 -1.6,-0.66 -2.89,-0.35 -3.87,0.94 -0.93,1.25 -1.91,2.23 -2.89,2.89 0.63,3.16 1.29,6.21 1.96,9.1 0.93,2.58 2.38,3.71 4.29,3.4" /><path
         id="path16"
         style="fill:#234773;fill-opacity:1;fill-rule:evenodd;stroke:none"
         d="m 1003.05,1388.36 c -51.249,0 -91.14,-16.48 -119.609,-49.45 -28.48,-33.01 -42.742,-78.17 -42.742,-135.59 0,-56.76 14.852,-102.38 44.531,-136.87 29.692,-34.5 69.848,-51.76 120.43,-51.76 64.89,0 113.64,32.11 146.25,96.29 l 51.29,-25.63 c -19.06,-39.88 -45.86,-70.23 -80.35,-91.049 -34.53,-20.821 -74.57,-31.211 -120.12,-31.211 -46.679,0 -87.031,9.68 -121.128,29.101 -34.063,19.369 -60,47.069 -77.891,83.119 -17.852,36.06 -26.762,78.71 -26.762,128.01 0,73.83 19.93,131.68 59.813,173.52 39.879,41.87 95.078,62.77 165.618,62.77 49.3,0 90.51,-9.65 123.6,-28.91 33.08,-19.29 57.38,-47.89 72.93,-85.78 l -59.46,-19.72 c -10.74,26.95 -28,47.53 -51.79,61.79 -23.75,14.22 -51.96,21.37 -84.61,21.37 z m 671.75,44.37 -188.98,-463.082 h -65.08 L 1231.8,1432.73 h 66.05 l 128.17,-326.01 27.61,-81.84 27.58,81.84 127.54,326.01 z" /></g></g></svg>